<?xml version="1.0" ?><svg height="512" width="512" id="Layer_1" style="enable-background:new 0 0 128 128;" version="1.1" viewBox="0 0 128 128" xml:space="preserve" xmlns="http://www.w3.org/2000/svg" xmlns:xlink="http://www.w3.org/1999/xlink"><style type="text/css">
	.st0{fill:#0A0A0A;}
	.st1{fill:none;stroke:#0A0A0A;stroke-width:2;stroke-miterlimit:10;}
</style><g id="Layer_1_1_"/><path class="st0" d="M64,1C39.2,1,19,21,19,45.6c0,10.7,7.1,29.3,19.1,49.7C47,110.6,58.9,127,64,127s17-16.4,25.9-31.7  c11.9-20.4,19.1-39,19.1-49.7C109,21,88.8,1,64,1z M88.2,94.3C77.2,113.3,67,125,64,125s-13.2-11.7-24.2-30.7C28,74.2,21,56,21,45.6  C21,22.1,40.3,3,64,3s43,19.1,43,42.6C107,56,100,74.2,88.2,94.3z"/><path class="st1" d="M64,18c-14.3,0-26,11.7-26,26s11.7,26,26,26s26-11.7,26-26S78.3,18,64,18z"/><circle class="st1" cx="64" cy="44" r="7"/></svg>